# xmcd
# 
# Track frame offsets:
#     150
#     26123
#     44008
#     63975
#     77138
#     88913
#     104668
#     117985
#     134270
#     150150
#     162355
#     176488
#     191440
#     208055
#     230263
#     250465
# 
# Disc length: 3631
# 
# Revision: 2
# Processed by: cddbd v1.5.2PL0 Copyright (c) Steve Scherf et al.
# Submitted via: BonkEnc v1.0.8
# 
DISCID=dd0e2d10
DTITLE=Various Artist - Blues - Pain Created To Heal Pain
DYEAR=1990
DGENRE=Blues
TTITLE0=Louis Myers - Listen To The Blues
TTITLE1=Jack Owens - Hard Times
TTITLE2=Honeybody Edwards - 61 Highway
TTITLE3=James Son Thomas - Cairo
TTITLE4=James Son Thomas - Dust My Broom
TTITLE5=Johnny Billington and Robert Nighthawk - Sweet Little Angel
TTITLE6=Sam Carr and Arthur Crudup - Rock Me Mama
TTITLE7=Bonnie Lee Murray - Sad And Evil Woman
TTITLE8=Lester Davenport - Mad Dog On The loose
TTITLE9=Wade Walton - Fourth Street Blues
TTITLE10=Honeybody Edwards - Shake em On Down
TTITLE11=Sunnyland Slim and Albert Iuandrew - The devil s a Busy Man
TTITLE12=Big Jack Johnson and Robert Petway - Catfish Blues
TTITLE13=Jessie Mae Hemphill - Shame On You I Feel It
TTITLE14=Louis Myers - Elevationist Woman In Town
TTITLE15=Eugene Powell - Old Lonesome Blues
EXTD=Soundtrack of the Video Movie "Blues"\nDirector - João Moreira Salles
EXTT0=
EXTT1=
EXTT2=
EXTT3=
EXTT4=
EXTT5=
EXTT6=
EXTT7=
EXTT8=
EXTT9=
EXTT10=And Booker White
EXTT11=
EXTT12=
EXTT13=
EXTT14=
EXTT15=
PLAYORDER=
